# xmcd
#
# Track frame offsets:
#	150
#	12598
#	26349
#	41018
#	61254
#	82666
#	96425
#	107418
#	127344
#	143910
#	161566
#	175822
#
# Disc length: 2608 seconds
# Revision: 0
# Processed by: cddbd v1.5.2PL0 Copyright (c) Steve Scherf et al.
# Submitted via: dBpowerAMP V12.0
#
DISCID=980a2e0c
DTITLE=The Blue Shadows - On The Floor Of Heaven [CD1)
DYEAR=1993
DGENRE=Country
TTITLE0=Coming On Strong
TTITLE1=The Fool Is The Last One To Know
TTITLE2=If I Were You
TTITLE3=Think Of It
TTITLE4=Deliver Me
TTITLE5=A Thousand Times
TTITLE6=If It Ain't Rockin'
TTITLE7=On The Floor Of Heaven
TTITLE8=When Will The Heartache End
TTITLE9=The Embers
TTITLE10=I Believe
TTITLE11=Is Anybody Here?
EXTD=
EXTT0=
EXTT1=
EXTT2=
EXTT3=
EXTT4=
EXTT5=
EXTT6=
EXTT7=
EXTT8=
EXTT9=
EXTT10=
EXTT11=
PLAYORDER=
